<?xml version="1.0" encoding="iso-8859-1"?>
<!-- Generator: Adobe Illustrator 16.0.0, SVG Export Plug-In . SVG Version: 6.00 Build 0)  -->
<!DOCTYPE svg PUBLIC "-//W3C//DTD SVG 1.1//EN" "http://www.w3.org/Graphics/SVG/1.1/DTD/svg11.dtd">
<svg version="1.1" id="Capa_1" xmlns="http://www.w3.org/2000/svg" xmlns:xlink="http://www.w3.org/1999/xlink" x="0px" y="0px"
	 width="612px" height="612px" viewBox="0 0 612 612" style="enable-background:new 0 0 612 612;" xml:space="preserve">
<g>
	<path d="M305.995,0C137.254,0.011,0,137.287,0,306.006C0,474.735,137.254,612,305.995,612S612,474.735,612,306.006
		C612,137.287,474.724,0.011,305.995,0z M305.995,574.793c-148.228,0-268.81-120.57-268.81-268.787
		c0-148.206,120.582-268.776,268.81-268.776c148.206,0,268.798,120.57,268.821,268.776
		C574.781,454.233,454.2,574.793,305.995,574.793z M477.763,134.26c-45.9-45.888-106.892-71.153-171.768-71.153
		c-64.865,0-125.857,25.276-171.757,71.165c-45.889,45.877-71.153,106.858-71.153,171.746c0,64.865,25.276,125.879,71.153,171.768
		c45.9,45.878,106.892,71.143,171.757,71.143c64.887,0,125.879-25.276,171.768-71.143c45.888-45.889,71.142-106.892,71.142-171.768
		C548.894,241.129,523.65,180.148,477.763,134.26z M416.103,448.09l-2.315,7.201h-7.546c-6.711,0-11.742-5.698-13.589-8.158
		l-68.917-91.287c-5.521,2.537-11.553,3.895-17.685,3.917c-13.457,0-25.934-6.399-33.847-16.884l-44.386,15.203
		c-1.024,0.39-2.582,0.69-4.107,0.69c-5.387,0-10.239-3.45-12.031-8.548l-0.301-0.901c-1.024-2.961-0.834-6.467,0.668-9.55
		c1.491-3.071,4.085-5.387,7.301-6.488l44.275-15.137c-0.011-0.256-0.011-0.546-0.011-0.802c0-21.647,16.305-39.556,37.263-42.093
		l14.736-105.745c0.835-6.222,6.244-10.963,12.622-10.963h0.646l0.623,0.089l1.124,0.145c3.395,0.479,6.311,2.17,8.336,4.808
		c2.227,3.083,3.039,6.422,2.549,9.728l-14.937,106.969c12.978,7.268,21.815,21.147,21.871,37.062c0,8.069-2.249,15.805-6.444,22.46
		l70.029,92.701C416.036,437.717,417.527,443.571,416.103,448.09z M306.027,300.797c-9.104,0.022-16.494,7.435-16.505,16.55
		c0.011,9.071,7.413,16.483,16.505,16.495c9.094,0,16.506-7.413,16.506-16.518C322.533,308.231,315.132,300.819,306.027,300.797z"/>
</g>
<g>
</g>
<g>
</g>
<g>
</g>
<g>
</g>
<g>
</g>
<g>
</g>
<g>
</g>
<g>
</g>
<g>
</g>
<g>
</g>
<g>
</g>
<g>
</g>
<g>
</g>
<g>
</g>
<g>
</g>
</svg>
