<?xml version="1.0" encoding="iso-8859-1"?>
<!-- Generator: Adobe Illustrator 19.0.0, SVG Export Plug-In . SVG Version: 6.00 Build 0)  -->
<svg version="1.1" id="Capa_1" xmlns="http://www.w3.org/2000/svg" xmlns:xlink="http://www.w3.org/1999/xlink" x="0px" y="0px"
	 viewBox="0 0 474.561 474.561" style="enable-background:new 0 0 474.561 474.561;" xml:space="preserve">
<g>
	<g>
		<g>
			<path style="fill:#010002;" d="M432.678,15.988c-34.039-26.058-82.832-19.586-108.954,14.474l123.406,94.48
				C473.253,90.839,466.76,42.132,432.678,15.988z"/>
			<path style="fill:#010002;" d="M41.858,15.988C7.798,42.132,1.327,90.839,27.406,124.942l123.406-94.48
				C124.69-3.598,75.94-10.069,41.858,15.988z"/>
			<path style="fill:#010002;" d="M239.317,43.059c-115.49,0-209.107,93.617-209.107,209.086
				c0,115.49,93.617,209.107,209.107,209.107s209.086-93.617,209.086-209.107C448.425,136.677,354.807,43.059,239.317,43.059z
				 M239.382,279.475c-3.171,0-6.126-0.82-8.973-1.812L124.733,339.96l89.281-78.237c-1.122-3.02-1.92-6.169-1.92-9.556
				c0-12.015,7.895-21.916,18.68-25.561l16.502-140.21l10.268,145.689c5.544,5.004,9.168,12.058,9.168,20.104
				C266.691,267.245,254.46,279.475,239.382,279.475z"/>
			<path style="fill:#010002;" d="M362.141,440.695l19.047,33.866h48.577l-34.211-60.635
				C385.33,423.827,374.135,432.757,362.141,440.695z"/>
			<path style="fill:#010002;" d="M44.835,474.561H93.37l20.147-35.786c-11.886-8.046-22.951-17.257-33.133-27.352L44.835,474.561z"
				/>
		</g>
	</g>
	<g>
	</g>
	<g>
	</g>
	<g>
	</g>
	<g>
	</g>
	<g>
	</g>
	<g>
	</g>
	<g>
	</g>
	<g>
	</g>
	<g>
	</g>
	<g>
	</g>
	<g>
	</g>
	<g>
	</g>
	<g>
	</g>
	<g>
	</g>
	<g>
	</g>
</g>
<g>
</g>
<g>
</g>
<g>
</g>
<g>
</g>
<g>
</g>
<g>
</g>
<g>
</g>
<g>
</g>
<g>
</g>
<g>
</g>
<g>
</g>
<g>
</g>
<g>
</g>
<g>
</g>
<g>
</g>
</svg>
